<?xml version="1.0" standalone="no"?>
<!DOCTYPE svg PUBLIC "-//W3C//DTD SVG 20010904//EN"
 "http://www.w3.org/TR/2001/REC-SVG-20010904/DTD/svg10.dtd">
<svg version="1.0" xmlns="http://www.w3.org/2000/svg"
 width="300.000000pt" height="300.000000pt" viewBox="0 0 300.000000 300.000000"
 preserveAspectRatio="xMidYMid meet">
<metadata>
Created by potrace 1.14, written by Peter Selinger 2001-2017
</metadata>
<g transform="translate(0.000000,300.000000) scale(0.100000,-0.100000)"
fill="#000000" stroke="none">
<path d="M0 1500 l0 -1500 1500 0 1500 0 0 1500 0 1500 -1500 0 -1500 0 0
-1500z m2127 969 c182 -25 356 -105 475 -217 63 -59 139 -156 154 -196 4 -10
-46 -48 -161 -125 -91 -62 -171 -114 -178 -117 -8 -3 -20 10 -30 31 -40 85
-158 177 -266 209 -72 21 -220 21 -292 0 -30 -9 -55 -17 -57 -19 -2 -2 7 -36
19 -76 34 -109 32 -263 -5 -376 -45 -139 -140 -261 -257 -330 -18 -11 -28 -24
-26 -33 2 -8 97 -169 210 -358 114 -189 207 -347 207 -352 0 -5 -110 -9 -244
-10 -276 -1 -253 -7 -309 88 -19 31 -152 252 -296 490 -143 238 -261 434 -261
436 0 2 87 6 193 8 l194 3 49 30 c38 24 56 45 82 95 33 62 34 69 30 155 -5 99
-24 148 -75 197 -59 56 -71 58 -455 58 l-353 0 -110 187 c-61 103 -111 193
-113 200 -3 11 94 13 501 13 471 0 509 -1 582 -20 43 -11 100 -34 126 -51 l48
-30 63 29 c169 81 359 108 555 81z m471 -1421 c96 -56 176 -107 178 -113 9
-22 -68 -139 -135 -206 -74 -73 -168 -133 -283 -179 -126 -50 -132 -50 -164 1
-50 80 -185 311 -187 321 -1 6 30 17 68 25 139 29 264 114 315 214 11 21 23
39 27 39 4 0 85 -46 181 -102z"/>
</g>
</svg>
